<?xml version="1.0" encoding="UTF-8"?>
<!DOCTYPE svg PUBLIC "-//W3C//DTD SVG 1.1//EN" "http://www.w3.org/Graphics/SVG/1.1/DTD/svg11.dtd">
<svg xmlns="http://www.w3.org/2000/svg" version="1.1" width="600px" height="371px" style="shape-rendering:geometricPrecision; text-rendering:geometricPrecision; image-rendering:optimizeQuality; fill-rule:evenodd; clip-rule:evenodd" xmlns:xlink="http://www.w3.org/1999/xlink">
<g><path style="opacity:0.982" fill="#77029f" d="M 299.5,17.5 C 363.238,19.6041 411.738,47.6041 445,101.5C 467.172,142.037 472.505,184.704 461,229.5C 441.063,293.438 398.563,333.271 333.5,349C 270.801,359.877 217.634,342.377 174,296.5C 130.153,242.41 120.82,182.743 146,117.5C 150.809,106.229 156.976,95.8953 164.5,86.5C 176.227,94.3569 187.56,102.69 198.5,111.5C 169.749,155.015 167.249,200.015 191,246.5C 220.976,294.234 264.143,314.734 320.5,308C 365.888,298.275 397.721,272.109 416,229.5C 433.37,175.479 421.537,128.979 380.5,90C 357.097,70.5851 330.097,60.7517 299.5,60.5C 299.5,46.1667 299.5,31.8333 299.5,17.5 Z"/></g>
<g><path style="opacity:0.921" fill="#fefffe" d="M 267.5,144.5 C 287.169,143.992 295.669,153.326 293,172.5C 291.667,175.167 290.333,177.833 289,180.5C 281.865,188.636 274.365,196.47 266.5,204C 272.832,204.011 279.165,203.511 285.5,202.5C 286.093,200.618 286.76,198.785 287.5,197C 290.146,196.503 292.813,196.336 295.5,196.5C 295.5,202.833 295.5,209.167 295.5,215.5C 278.833,215.5 262.167,215.5 245.5,215.5C 245.248,212.68 245.748,210.014 247,207.5C 254.667,199.833 262.333,192.167 270,184.5C 275.431,179.235 278.931,172.902 280.5,165.5C 278.32,156.381 272.986,153.881 264.5,158C 262.623,160.251 261.123,162.751 260,165.5C 256.079,167.704 252.079,167.704 248,165.5C 248.761,153.237 255.261,146.237 267.5,144.5 Z"/></g>
<g><path style="opacity:0.906" fill="#fefffe" d="M 322.5,158.5 C 326.5,158.5 330.5,158.5 334.5,158.5C 334.5,165.167 334.5,171.833 334.5,178.5C 340.5,178.5 346.5,178.5 352.5,178.5C 352.5,181.833 352.5,185.167 352.5,188.5C 346.5,188.5 340.5,188.5 334.5,188.5C 334.5,194.833 334.5,201.167 334.5,207.5C 330.5,207.5 326.5,207.5 322.5,207.5C 322.5,201.167 322.5,194.833 322.5,188.5C 316.5,188.5 310.5,188.5 304.5,188.5C 304.5,185.167 304.5,181.833 304.5,178.5C 310.5,178.5 316.5,178.5 322.5,178.5C 322.5,171.833 322.5,165.167 322.5,158.5 Z"/></g>
</svg>
