<?xml version="1.0" encoding="UTF-8"?>
<!DOCTYPE svg PUBLIC "-//W3C//DTD SVG 1.1//EN" "http://www.w3.org/Graphics/SVG/1.1/DTD/svg11.dtd">
<svg xmlns="http://www.w3.org/2000/svg" version="1.1" width="600px" height="371px" style="shape-rendering:geometricPrecision; text-rendering:geometricPrecision; image-rendering:optimizeQuality; fill-rule:evenodd; clip-rule:evenodd" xmlns:xlink="http://www.w3.org/1999/xlink">
<g><path style="opacity:0.983" fill="#77029f" d="M 299.5,17.5 C 363.242,19.6062 411.742,47.6062 445,101.5C 467.068,142.045 472.401,184.711 461,229.5C 441.067,293.434 398.567,333.267 333.5,349C 263.288,360.386 206.454,338.219 163,282.5C 131.608,236.031 124.275,186.031 141,132.5C 153.717,137.128 166.55,141.461 179.5,145.5C 179.833,146.167 180.167,146.833 180.5,147.5C 166.83,199.331 179.496,243.498 218.5,280C 259.551,311.959 304.218,317.959 352.5,298C 404.085,270.343 427.585,227.176 423,168.5C 412.671,112.837 380.171,77.6708 325.5,63C 316.925,61.1796 308.259,60.3463 299.5,60.5C 299.5,46.1667 299.5,31.8333 299.5,17.5 Z"/></g>
<g><path style="opacity:0.922" fill="#fefffe" d="M 269.5,145.5 C 273.5,145.5 277.5,145.5 281.5,145.5C 281.5,165.833 281.5,186.167 281.5,206.5C 285.273,206.263 288.94,206.763 292.5,208C 293.435,210.381 293.768,212.881 293.5,215.5C 280.167,215.5 266.833,215.5 253.5,215.5C 253.232,212.881 253.565,210.381 254.5,208C 258.751,206.805 263.085,206.305 267.5,206.5C 267.667,192.163 267.5,177.829 267,163.5C 263.796,166.731 260.129,169.065 256,170.5C 252.368,169.83 249.868,167.664 248.5,164C 255.376,157.619 262.376,151.453 269.5,145.5 Z"/></g>
<g><path style="opacity:0.906" fill="#fefffe" d="M 321.5,158.5 C 325.5,158.5 329.5,158.5 333.5,158.5C 333.5,165.167 333.5,171.833 333.5,178.5C 339.5,178.5 345.5,178.5 351.5,178.5C 351.5,181.833 351.5,185.167 351.5,188.5C 345.5,188.5 339.5,188.5 333.5,188.5C 333.5,194.833 333.5,201.167 333.5,207.5C 329.5,207.5 325.5,207.5 321.5,207.5C 321.5,201.167 321.5,194.833 321.5,188.5C 315.5,188.5 309.5,188.5 303.5,188.5C 303.5,185.167 303.5,181.833 303.5,178.5C 309.5,178.5 315.5,178.5 321.5,178.5C 321.5,171.833 321.5,165.167 321.5,158.5 Z"/></g>
</svg>
