<?xml version="1.0" encoding="UTF-8"?>
<!DOCTYPE svg PUBLIC "-//W3C//DTD SVG 1.1//EN" "http://www.w3.org/Graphics/SVG/1.1/DTD/svg11.dtd">
<svg xmlns="http://www.w3.org/2000/svg" version="1.1" width="600px" height="371px" style="shape-rendering:geometricPrecision; text-rendering:geometricPrecision; image-rendering:optimizeQuality; fill-rule:evenodd; clip-rule:evenodd" xmlns:xlink="http://www.w3.org/1999/xlink">
<g><path style="opacity:0.982" fill="#77029f" d="M 299.5,17.5 C 375.364,20.9936 427.864,57.6603 457,127.5C 478.836,198.326 463.336,259.493 410.5,311C 360.726,351.466 305.059,362.133 243.5,343C 182.598,319.09 146.098,274.924 134,210.5C 126.464,147.415 146.631,95.248 194.5,54C 210.609,41.7521 228.276,32.2521 247.5,25.5C 252.35,38.7139 257.017,52.0472 261.5,65.5C 204.66,88.1554 175.827,130.155 175,191.5C 179.899,243.378 206.065,279.878 253.5,301C 299.805,317.227 342.139,310.227 380.5,280C 421.536,241.025 433.369,194.525 416,140.5C 393.86,89.6695 355.027,63.0028 299.5,60.5C 299.5,46.1667 299.5,31.8333 299.5,17.5 Z M 275.5,164.5 C 276.492,172.316 276.826,180.316 276.5,188.5C 270.491,188.666 264.491,188.499 258.5,188C 264.385,180.288 270.052,172.455 275.5,164.5 Z"/></g>
<g><path style="opacity:0.906" fill="#fefffe" d="M 275.5,145.5 C 280.167,145.5 284.833,145.5 289.5,145.5C 289.5,159.833 289.5,174.167 289.5,188.5C 292.167,188.5 294.833,188.5 297.5,188.5C 297.5,191.833 297.5,195.167 297.5,198.5C 294.833,198.5 292.167,198.5 289.5,198.5C 289.5,204.167 289.5,209.833 289.5,215.5C 285.167,215.5 280.833,215.5 276.5,215.5C 276.5,209.833 276.5,204.167 276.5,198.5C 266.161,198.666 255.828,198.5 245.5,198C 242.689,193.675 242.856,189.508 246,185.5C 256.087,172.315 265.92,158.982 275.5,145.5 Z M 275.5,164.5 C 270.052,172.455 264.385,180.288 258.5,188C 264.491,188.499 270.491,188.666 276.5,188.5C 276.826,180.316 276.492,172.316 275.5,164.5 Z"/></g>
<g><path style="opacity:0.929" fill="#fefffe" d="M 322.5,158.5 C 326.167,158.5 329.833,158.5 333.5,158.5C 333.5,165.167 333.5,171.833 333.5,178.5C 339.833,178.5 346.167,178.5 352.5,178.5C 352.5,181.833 352.5,185.167 352.5,188.5C 346.167,188.5 339.833,188.5 333.5,188.5C 333.5,194.833 333.5,201.167 333.5,207.5C 329.833,207.5 326.167,207.5 322.5,207.5C 322.5,201.167 322.5,194.833 322.5,188.5C 316.167,188.5 309.833,188.5 303.5,188.5C 303.5,185.167 303.5,181.833 303.5,178.5C 309.833,178.5 316.167,178.5 322.5,178.5C 322.5,171.833 322.5,165.167 322.5,158.5 Z"/></g>
</svg>
