<?xml version="1.0" encoding="UTF-8"?>
<!DOCTYPE svg PUBLIC "-//W3C//DTD SVG 1.1//EN" "http://www.w3.org/Graphics/SVG/1.1/DTD/svg11.dtd">
<svg xmlns="http://www.w3.org/2000/svg" version="1.1" width="600px" height="371px" style="shape-rendering:geometricPrecision; text-rendering:geometricPrecision; image-rendering:optimizeQuality; fill-rule:evenodd; clip-rule:evenodd" xmlns:xlink="http://www.w3.org/1999/xlink">
<g><path style="opacity:0.983" fill="#77029f" d="M 299.5,17.5 C 363.239,19.6047 411.739,47.6047 445,101.5C 467.743,143.449 472.743,187.449 460,233.5C 435.36,304.079 385.86,343.579 311.5,352C 242.652,354.382 190.152,326.548 154,268.5C 131.828,227.963 126.495,185.296 138,140.5C 148.826,102.814 169.993,72.4803 201.5,49.5C 209.833,60.8333 218.167,72.1667 226.5,83.5C 186.152,115.555 169.652,157.222 177,208.5C 189.648,260.482 221.815,293.315 273.5,307C 326.04,315.829 368.54,299.329 401,257.5C 432.332,209.174 432.332,160.84 401,112.5C 375.786,78.6418 341.953,61.3084 299.5,60.5C 299.5,46.1667 299.5,31.8333 299.5,17.5 Z"/></g>
<g><path style="opacity:0.916" fill="#fefffe" d="M 267.5,144.5 C 288.13,143.282 296.297,152.616 292,172.5C 289.795,175.04 287.295,177.207 284.5,179C 291.723,181.889 295.389,187.223 295.5,195C 294.883,206.616 288.883,213.616 277.5,216C 261.721,219.281 251.055,213.447 245.5,198.5C 248.863,195.328 252.863,194.161 257.5,195C 259.35,198.362 261.683,201.362 264.5,204C 275.787,207.373 281.287,203.207 281,191.5C 280.727,189.671 279.893,188.171 278.5,187C 274.379,185.101 270.046,184.268 265.5,184.5C 265.5,181.5 265.5,178.5 265.5,175.5C 275.906,176.258 280.739,171.592 280,161.5C 276.858,156.008 272.358,154.508 266.5,157C 263.639,159.219 261.639,162.053 260.5,165.5C 259.441,166.696 258.107,167.363 256.5,167.5C 253.855,166.892 251.188,166.392 248.5,166C 247.86,158.975 250.527,153.308 256.5,149C 260.157,147.178 263.824,145.678 267.5,144.5 Z"/></g>
<g><path style="opacity:0.906" fill="#fefffe" d="M 321.5,158.5 C 325.5,158.5 329.5,158.5 333.5,158.5C 333.5,165.167 333.5,171.833 333.5,178.5C 339.5,178.5 345.5,178.5 351.5,178.5C 351.5,181.833 351.5,185.167 351.5,188.5C 345.5,188.5 339.5,188.5 333.5,188.5C 333.5,194.833 333.5,201.167 333.5,207.5C 329.5,207.5 325.5,207.5 321.5,207.5C 321.5,201.167 321.5,194.833 321.5,188.5C 315.5,188.5 309.5,188.5 303.5,188.5C 303.5,185.167 303.5,181.833 303.5,178.5C 309.5,178.5 315.5,178.5 321.5,178.5C 321.5,171.833 321.5,165.167 321.5,158.5 Z"/></g>
</svg>
