<?xml version="1.0" encoding="UTF-8"?>
<!DOCTYPE svg PUBLIC "-//W3C//DTD SVG 1.1//EN" "http://www.w3.org/Graphics/SVG/1.1/DTD/svg11.dtd">
<svg xmlns="http://www.w3.org/2000/svg" version="1.1" width="600px" height="371px" style="shape-rendering:geometricPrecision; text-rendering:geometricPrecision; image-rendering:optimizeQuality; fill-rule:evenodd; clip-rule:evenodd" xmlns:xlink="http://www.w3.org/1999/xlink">
<g><path style="opacity:0.922" fill="#fefffe" d="M 272.5,102.5 C 279.276,102.113 283.776,105.113 286,111.5C 288.291,135.782 289.958,160.115 291,184.5C 292.674,198.915 295.508,213.082 299.5,227C 296.699,237.21 291.199,239.044 283,232.5C 281.725,230.283 280.725,227.949 280,225.5C 275.097,198.706 272.097,171.706 271,144.5C 265.729,167.636 260.063,190.636 254,213.5C 248.627,217.731 243.794,217.065 239.5,211.5C 230.333,196.5 221.167,181.5 212,166.5C 211.667,192.5 211.333,218.5 211,244.5C 205.36,250.047 200.027,249.714 195,243.5C 194.146,217.34 193.646,191.173 193.5,165C 193.349,150.743 193.849,136.576 195,122.5C 200.453,119.44 205.453,120.107 210,124.5C 220.034,143.853 230.034,163.186 240,182.5C 241,183.5 242,184.5 243,185.5C 249.87,161.017 257.204,136.684 265,112.5C 266.317,108.163 268.817,104.83 272.5,102.5 Z"/></g>
<g><path style="opacity:0.898" fill="#fefffe" d="M 376.5,135.5 C 383.046,137.006 385.213,141.006 383,147.5C 380.966,150.42 378.132,152.253 374.5,153C 356.557,155.698 340.224,162.198 325.5,172.5C 324.071,174.331 323.571,176.331 324,178.5C 328.976,180.582 334.142,182.082 339.5,183C 358.111,183.892 376.444,186.559 394.5,191C 406.953,195.679 409.786,203.512 403,214.5C 389.495,229.344 373.329,240.177 354.5,247C 349.905,248.393 345.239,248.726 340.5,248C 338.259,246.261 336.592,244.094 335.5,241.5C 337.65,238.849 339.983,236.349 342.5,234C 359.978,228.497 375.478,219.663 389,207.5C 389.483,206.552 389.649,205.552 389.5,204.5C 369.782,202.142 350.116,199.309 330.5,196C 325.448,194.872 320.448,193.538 315.5,192C 309.438,189.439 305.772,184.939 304.5,178.5C 306.866,168.924 311.866,161.091 319.5,155C 326.327,150.587 333.66,147.254 341.5,145C 353.479,142.5 365.145,139.333 376.5,135.5 Z"/></g>
</svg>
