<?xml version="1.0" encoding="UTF-8"?>
<!DOCTYPE svg PUBLIC "-//W3C//DTD SVG 1.1//EN" "http://www.w3.org/Graphics/SVG/1.1/DTD/svg11.dtd">
<svg xmlns="http://www.w3.org/2000/svg" version="1.1" width="300px" height="300px" style="shape-rendering:geometricPrecision; text-rendering:geometricPrecision; image-rendering:optimizeQuality; fill-rule:evenodd; clip-rule:evenodd" xmlns:xlink="http://www.w3.org/1999/xlink">
<g><path style="opacity:0.994" fill="#fbfbfb" d="M 183.5,130.5 C 179.854,132.817 176.52,135.484 173.5,138.5C 172.29,138.932 171.29,139.599 170.5,140.5C 167.142,143.197 163.809,145.864 160.5,148.5C 159.29,148.932 158.29,149.599 157.5,150.5C 154.763,153.402 151.596,155.735 148,157.5C 140.351,152.015 132.851,146.349 125.5,140.5C 113.157,130.907 100.49,120.907 87.5,110.5C 84.2059,107.844 80.8726,105.178 77.5,102.5C 73.8781,100.213 70.5448,97.5466 67.5,94.5C 64.4905,92.6459 61.8238,90.3126 59.5,87.5C 119.497,86.3334 179.497,86.1667 239.5,87C 220.933,101.746 202.267,116.246 183.5,130.5 Z"/></g>
<g><path style="opacity:0.004" fill="#dedfde" d="M 248.5,88.5 C 247.833,87.1667 247.833,87.1667 248.5,88.5 Z"/></g>
<g><path style="opacity:1" fill="#fcfcfc" d="M 248.5,88.5 C 249.831,127.669 249.831,167.002 248.5,206.5C 226.168,190.051 204.168,174.051 182.5,158.5C 178.38,155.553 174.38,152.387 170.5,149C 174.064,146.009 178.064,142.842 182.5,139.5C 204.203,122.881 226.203,105.881 248.5,88.5 Z"/></g>
<g><path style="opacity:1" fill="#fcfcfc" d="M 65.5,101.5 C 66.2905,102.401 67.2905,103.068 68.5,103.5C 71.8218,106.893 75.1551,109.559 78.5,111.5C 86.8089,118.136 95.1423,124.803 103.5,131.5C 106.794,134.156 110.127,136.822 113.5,139.5C 117.651,142.803 121.985,145.97 126.5,149C 122.601,152.411 118.601,155.578 114.5,158.5C 104.717,166.195 94.3838,173.862 83.5,181.5C 72.2106,189.616 61.0439,197.95 50,206.5C 49.1667,167.496 49.3334,128.496 50.5,89.5C 55.5189,93.5236 60.5189,97.5236 65.5,101.5 Z"/></g>
<g><path style="opacity:0.004" fill="#aeafae" d="M 67.5,94.5 C 66.8333,95.1667 66.8333,95.1667 67.5,94.5 Z"/></g>
<g><path style="opacity:0.004" fill="#dbdcdb" d="M 65.5,100.5 C 66.8333,101.167 66.8333,101.167 65.5,100.5 Z"/></g>
<g><path style="opacity:0.004" fill="#abacab" d="M 68.5,102.5 C 69.8333,103.167 69.8333,103.167 68.5,102.5 Z"/></g>
<g><path style="opacity:0.004" fill="#c8c9c8" d="M 77.5,102.5 C 76.8333,103.167 76.8333,103.167 77.5,102.5 Z"/></g>
<g><path style="opacity:0.004" fill="#b3b4b3" d="M 78.5,110.5 C 79.8333,111.167 79.8333,111.167 78.5,110.5 Z"/></g>
<g><path style="opacity:0.004" fill="#dfe0df" d="M 87.5,110.5 C 86.8333,111.167 86.8333,111.167 87.5,110.5 Z"/></g>
<g><path style="opacity:0.004" fill="#e1e2e1" d="M 103.5,130.5 C 104.833,131.167 104.833,131.167 103.5,130.5 Z"/></g>
<g><path style="opacity:0.004" fill="#e0e1e0" d="M 183.5,130.5 C 184.833,131.167 184.833,131.167 183.5,130.5 Z"/></g>
<g><path style="opacity:0.004" fill="#cacbca" d="M 113.5,138.5 C 114.833,139.167 114.833,139.167 113.5,138.5 Z"/></g>
<g><path style="opacity:0.004" fill="#b4b5b4" d="M 173.5,138.5 C 174.833,139.167 174.833,139.167 173.5,138.5 Z"/></g>
<g><path style="opacity:0.004" fill="#b5b6b5" d="M 182.5,139.5 C 181.833,138.167 181.833,138.167 182.5,139.5 Z"/></g>
<g><path style="opacity:0.004" fill="#d7d8d7" d="M 125.5,140.5 C 124.833,141.167 124.833,141.167 125.5,140.5 Z"/></g>
<g><path style="opacity:0.004" fill="#d3d4d3" d="M 170.5,140.5 C 171.833,141.167 171.833,141.167 170.5,140.5 Z"/></g>
<g><path style="opacity:0.004" fill="#aeafae" d="M 160.5,148.5 C 161.833,149.167 161.833,149.167 160.5,148.5 Z"/></g>
<g><path style="opacity:0.004" fill="#c3c4c3" d="M 157.5,150.5 C 158.833,151.167 158.833,151.167 157.5,150.5 Z"/></g>
<g><path style="opacity:1" fill="#fcfcfc" d="M 190.5,172.5 C 194.738,175.172 198.405,177.839 201.5,180.5C 203.972,181.909 206.305,183.576 208.5,185.5C 209.29,186.401 210.29,187.068 211.5,187.5C 213.86,189.853 216.527,191.853 219.5,193.5C 222.796,195.821 226.129,198.154 229.5,200.5C 233.457,203.122 237.124,206.122 240.5,209.5C 179.5,210.833 118.5,210.833 57.5,209.5C 58.5274,207.806 59.8608,206.473 61.5,205.5C 62.7095,205.068 63.7095,204.401 64.5,203.5C 76.8648,193.808 89.5315,184.475 102.5,175.5C 105.595,172.839 109.262,170.172 113.5,167.5C 119.179,162.568 125.346,158.235 132,154.5C 137.102,158.297 142.268,161.964 147.5,165.5C 151.061,164.26 154.061,162.26 156.5,159.5C 157.71,159.068 158.71,158.401 159.5,157.5C 161.129,156.375 162.629,155.041 164,153.5C 173.02,159.705 181.854,166.038 190.5,172.5 Z"/></g>
<g><path style="opacity:0.004" fill="#d0d1d0" d="M 159.5,157.5 C 158.833,156.167 158.833,156.167 159.5,157.5 Z"/></g>
<g><path style="opacity:0.004" fill="#dedfde" d="M 114.5,158.5 C 115.833,159.167 115.833,159.167 114.5,158.5 Z"/></g>
<g><path style="opacity:0.004" fill="#b2b3b2" d="M 156.5,159.5 C 155.833,158.167 155.833,158.167 156.5,159.5 Z"/></g>
<g><path style="opacity:0.004" fill="#d4d5d4" d="M 182.5,158.5 C 181.833,159.167 181.833,159.167 182.5,158.5 Z"/></g>
<g><path style="opacity:0.004" fill="#dedfde" d="M 113.5,167.5 C 112.833,166.167 112.833,166.167 113.5,167.5 Z"/></g>
<g><path style="opacity:0.004" fill="#bbbcbb" d="M 190.5,171.5 C 191.833,172.167 191.833,172.167 190.5,171.5 Z"/></g>
<g><path style="opacity:0.004" fill="#cecfce" d="M 102.5,175.5 C 101.833,174.167 101.833,174.167 102.5,175.5 Z"/></g>
<g><path style="opacity:0.004" fill="#dddedd" d="M 201.5,179.5 C 202.833,180.167 202.833,180.167 201.5,179.5 Z"/></g>
<g><path style="opacity:0.004" fill="#afb0af" d="M 83.5,181.5 C 84.8333,182.167 84.8333,182.167 83.5,181.5 Z"/></g>
<g><path style="opacity:0.004" fill="#babbba" d="M 208.5,184.5 C 209.833,185.167 209.833,185.167 208.5,184.5 Z"/></g>
<g><path style="opacity:0.004" fill="#b0b1b0" d="M 211.5,186.5 C 212.833,187.167 212.833,187.167 211.5,186.5 Z"/></g>
<g><path style="opacity:0.004" fill="#b7b8b7" d="M 219.5,192.5 C 220.833,193.167 220.833,193.167 219.5,192.5 Z"/></g>
<g><path style="opacity:0.004" fill="#aeafae" d="M 229.5,199.5 C 230.833,200.167 230.833,200.167 229.5,199.5 Z"/></g>
<g><path style="opacity:0.004" fill="#b9bab9" d="M 64.5,203.5 C 63.8333,202.167 63.8333,202.167 64.5,203.5 Z"/></g>
<g><path style="opacity:0.004" fill="#c8c9c8" d="M 61.5,205.5 C 60.8333,204.167 60.8333,204.167 61.5,205.5 Z"/></g>
<g><path style="opacity:0.998" fill="#bdbdbd" d="M 57.5,209.5 C 118.5,210.833 179.5,210.833 240.5,209.5C 241.756,209.461 242.756,209.961 243.5,211C 180.5,211.667 117.5,211.667 54.5,211C 55.2438,209.961 56.2438,209.461 57.5,209.5 Z"/></g>
</svg>
